<svg xmlns="http://www.w3.org/2000/svg" viewBox="0 0 1200 420" width="1200" height="420" role="img" aria-label="Verity — forensic marks, weighed as evidence">
  <defs>
    <linearGradient id="brand" x1="0" y1="0" x2="1" y2="0.3">
      <stop offset="0" stop-color="#0e2a47"/>
      <stop offset="1" stop-color="#a9803e"/>
    </linearGradient>
    <radialGradient id="glowBrass" cx="0.5" cy="0.5" r="0.5">
      <stop offset="0" stop-color="#a9803e" stop-opacity="0.10"/>
      <stop offset="1" stop-color="#a9803e" stop-opacity="0"/>
    </radialGradient>
    <radialGradient id="glowNavy" cx="0.5" cy="0.5" r="0.5">
      <stop offset="0" stop-color="#0e2a47" stop-opacity="0.08"/>
      <stop offset="1" stop-color="#0e2a47" stop-opacity="0"/>
    </radialGradient>
    <clipPath id="card"><rect x="0" y="0" width="1200" height="420" rx="24"/></clipPath>
  </defs>

  <g clip-path="url(#card)">
    <rect x="0" y="0" width="1200" height="420" fill="#f4f1ea"/>
    <rect x="0" y="0" width="1200" height="420" rx="24" fill="none" stroke="#13243a" stroke-opacity="0.14"/>
    <circle cx="150" cy="60" r="380" fill="url(#glowBrass)"/>
    <circle cx="1060" cy="380" r="380" fill="url(#glowNavy)"/>

    <!-- Signature / congruent-region motif (echoes the in-app alignment viz) -->
    <g>
      <g fill="#a9803e" fill-opacity="0.14">
        <rect x="846" y="118" width="26" height="158" rx="3"/>
        <rect x="948" y="118" width="26" height="158" rx="3"/>
        <rect x="1050" y="118" width="26" height="158" rx="3"/>
      </g>
      <g stroke="#a9803e" stroke-width="1.5" opacity="0.7">
        <line x1="859" y1="150" x2="859" y2="244"/>
        <line x1="961" y1="146" x2="961" y2="250"/>
        <line x1="1063" y1="138" x2="1063" y2="260"/>
      </g>
      <polyline fill="none" stroke="#0e2a47" stroke-width="3" stroke-linecap="round" stroke-linejoin="round"
        points="790,148 824,128 859,150 892,134 926,124 961,146 994,132 1028,156 1063,138 1096,150 1130,140"/>
      <polyline fill="none" stroke="#a9803e" stroke-width="3" stroke-linecap="round" stroke-linejoin="round"
        points="790,250 824,268 859,244 892,260 926,272 961,250 994,264 1028,244 1063,260 1096,250 1130,256"/>
      <text x="790" y="298" font-family="ui-monospace,'SF Mono',Menlo,monospace" font-size="13" fill="#5a6677">8 congruent matching regions</text>
    </g>

    <!-- Wordmark + message -->
    <text x="70" y="172" font-family="'Iowan Old Style','Palatino Linotype',Georgia,'Times New Roman',serif" font-size="116" font-weight="600" fill="url(#brand)">Verity</text>
    <text x="74" y="232" font-family="'Helvetica Neue',Arial,system-ui,sans-serif" font-size="30" font-weight="600" fill="#13243a">Forensic marks, weighed as evidence.</text>
    <text x="74" y="268" font-family="'Helvetica Neue',Arial,system-ui,sans-serif" font-size="17" fill="#5a6677">One calibrated, explainable method for forensic surface comparison.</text>

    <!-- Stat chips -->
    <g font-family="ui-monospace,'SF Mono',Menlo,monospace" font-size="14">
      <g>
        <rect x="74" y="298" width="116" height="32" rx="16" fill="#0e2a47" fill-opacity="0.08" stroke="#0e2a47" stroke-opacity="0.35"/>
        <text x="132" y="319" text-anchor="middle" fill="#13243a">AUC 0.98</text>
      </g>
      <g>
        <rect x="200" y="298" width="110" height="32" rx="16" fill="#a9803e" fill-opacity="0.10" stroke="#a9803e" stroke-opacity="0.4"/>
        <text x="255" y="319" text-anchor="middle" fill="#13243a">Cllr 0.19</text>
      </g>
      <g>
        <rect x="320" y="298" width="206" height="32" rx="16" fill="#13243a" fill-opacity="0.05" stroke="#13243a" stroke-opacity="0.18"/>
        <text x="423" y="319" text-anchor="middle" fill="#13243a">146 + 1,755 reference pairs</text>
      </g>
    </g>

    <text x="74" y="372" font-family="ui-monospace,'SF Mono',Menlo,monospace" font-size="13" fill="#5a6677">verity.codes</text>
  </g>
</svg>
